<?xml version="1.0" encoding="utf-8"?>
<!-- Generator: Adobe Illustrator 19.1.0, SVG Export Plug-In . SVG Version: 6.00 Build 0)  -->
<svg version="1.1" id="Layer_1" xmlns="http://www.w3.org/2000/svg" xmlns:xlink="http://www.w3.org/1999/xlink" x="0px" y="0px"
	 width="256px" height="256px" viewBox="211 444 256 256" style="enable-background:new 211 444 256 256;" xml:space="preserve">
<style type="text/css">
	.st0{fill:#FFFFFF;}
	.st1{fill:#EF7CBC;}
</style>
<circle class="st0" cx="339" cy="572" r="128"/>
<path class="st1" d="M250.1,624.8v-98.7c0-0.1,0.2-1.2,0.5-3.3l58.1,49.7l-57.9,55.7C250.3,626.6,250.1,625.5,250.1,624.8z
	 M257.8,515.9c0.8-0.3,1.8-0.5,2.9-0.5h156.5c1,0,2.1,0.2,3.1,0.5l-58.3,49.9l-7.7,6.2l-15.3,12.5L323.8,572l-7.7-6.2L257.8,515.9z
	 M258,634.9l58.5-56.1l22.6,18.3l22.6-18.3l58.5,56.1c-0.9,0.3-1.9,0.5-2.9,0.5H260.7C259.8,635.4,258.9,635.3,258,634.9z
	 M369.4,572.5l57.9-49.7c0.3,1,0.5,2.1,0.5,3.3v98.7c0,1-0.2,2.2-0.5,3.4L369.4,572.5z"/>
</svg>
