<svg xmlns="http://www.w3.org/2000/svg" width="256" height="256" viewBox="211 444 256 256" enable-background="new 211 444 256 256"><style type="text/css">.st0{fill:#FFFFFF;} .st1{fill:#EF7CBC;}</style><circle class="st0" cx="339" cy="572" r="128"/><path class="st1" d="M250.1 624.8v-98.7c0-.1.2-1.2.5-3.3l58.1 49.7-57.9 55.7c-.5-1.6-.7-2.7-.7-3.4zm7.7-108.9c.8-.3 1.8-.5 2.9-.5h156.5c1 0 2.1.2 3.1.5l-58.3 49.9-7.7 6.2-15.3 12.5-15.2-12.5-7.7-6.2-58.3-49.9zm.2 119l58.5-56.1 22.6 18.3 22.6-18.3 58.5 56.1c-.9.3-1.9.5-2.9.5h-156.6c-.9 0-1.8-.1-2.7-.5zm111.4-62.4l57.9-49.7c.3 1 .5 2.1.5 3.3v98.7c0 1-.2 2.2-.5 3.4l-57.9-55.7z"/></svg>