<?xml version="1.0" encoding="utf-8"?>
<!-- Generator: Adobe Illustrator 19.1.0, SVG Export Plug-In . SVG Version: 6.00 Build 0)  -->
<svg version="1.1" id="Layer_1" xmlns="http://www.w3.org/2000/svg" xmlns:xlink="http://www.w3.org/1999/xlink" x="0px" y="0px"
	 width="256px" height="256px" viewBox="211 444 256 256" style="enable-background:new 211 444 256 256;" xml:space="preserve">
<style type="text/css">
	.st0{fill:#FFFFFF;}
	.st1{fill:#EF7CBC;}
</style>
<circle class="st0" cx="339" cy="572" r="128"/>
<path class="st1" d="M280.2,555v-27.1c7.6-2.5,14.1-6,19.3-10.5c5.2-4.2,9.5-9.7,12.8-16.4c3.3-6.5,5.5-14.6,6.7-24.2h27.3V525h45.2
	v30h-45.2v48.9c0,10.9,0.6,18.1,1.7,21.4c1.1,3.1,3.3,5.5,6.5,7.4c4.3,2.5,9.2,3.8,14.5,3.8c9.8,0,19.4-3.1,28.8-9.4v30
	c-8,3.9-15.4,6.7-22.1,8.2c-6.6,1.5-13.7,2.3-21.4,2.3c-8.7,0-16.4-1.1-23.3-3.2c-7-2.4-12.7-5.6-17-9.5c-4.6-3.9-7.9-8.3-9.9-13
	c-1.8-4.3-2.7-11-2.7-20V555H280.2z"/>
</svg>
