<svg xmlns="http://www.w3.org/2000/svg" width="256" height="256" viewBox="211 444 256 256" enable-background="new 211 444 256 256"><style type="text/css">.st0{fill:#FFFFFF;} .st1{fill:#EF7CBC;}</style><circle class="st0" cx="339" cy="572" r="128"/><path class="st1" d="M280.2 555v-27.1c7.6-2.5 14.1-6 19.3-10.5 5.2-4.2 9.5-9.7 12.8-16.4 3.3-6.5 5.5-14.6 6.7-24.2h27.3v48.2h45.2v30h-45.2v48.9c0 10.9.6 18.1 1.7 21.4 1.1 3.1 3.3 5.5 6.5 7.4 4.3 2.5 9.2 3.8 14.5 3.8 9.8 0 19.4-3.1 28.8-9.4v30c-8 3.9-15.4 6.7-22.1 8.2-6.6 1.5-13.7 2.3-21.4 2.3-8.7 0-16.4-1.1-23.3-3.2-7-2.4-12.7-5.6-17-9.5-4.6-3.9-7.9-8.3-9.9-13-1.8-4.3-2.7-11-2.7-20v-66.9h-21.2z"/></svg>